# xmcd
#
# Track frame offsets: 
#        182
#        14885
#        28225
#        41965
#        56430
#        69142
#        80955
#        95267
#        105662
#        119427
#        130640
#        142685
#
# Disc length: 2022 seconds
#
# Revision: 2
# Processed by: cddbd v1.5.2PL0 Copyright (c) Steve Scherf et al.
# Submitted via: ExactAudioCopy v1.0b1
#
DISCID=a307e40c
DTITLE=Freddie Scott - Sings And Sings And Sings
DYEAR=1900
DGENRE=
TTITLE0=I Got A Woman
TTITLE1=What Do I See In The Girl
TTITLE2=If I Had A Hammer
TTITLE3=In The Wee Small Hours Of The Morning
TTITLE4=Where Have All The Flowers Gone
TTITLE5=Days Of Wine And Roses
TTITLE6=Hey Girl
TTITLE7=A Hundred Pounds Of Clay
TTITLE8=Where Does Love Go
TTITLE9=On Broadway
TTITLE10=Where Is The Girl
TTITLE11=My Romance
EXTD=
EXTT0=
EXTT1=
EXTT2=
EXTT3=
EXTT4=
EXTT5=
EXTT6=
EXTT7=
EXTT8=
EXTT9=
EXTT10=
EXTT11=
PLAYORDER=
